PathFileType	4	(X/Y/Z)	C:/Users/opensim2020/Desktop/walking_exp_matlab/subject01_walking04_straight_02.trc																																																																																																																															
DataRate	CameraRate	NumFrames	NumMarkers	Units	OrigDataRate	OrigDataStartFrame	OrigNumFrames																																																																																																																											
100	100	7	43	mm	100	1613	261																																																																																																																											
Frame#	Time	LFHD			RFHD			LBHD			RBHD			C7			T10			CLAV			STRN			RBAK			LSHO			LUPA			LELB			LFRM			LWRA			LWRB			LFIN			RSHO			RUPA			RELB			RFRM			RWRA			RWRB			RFIN			LASI			RASI			LPSI			RPSI			LTHI			LKNE			LTIB			LANK			LHEE			LTOE			RTHI			RKNE			RTIB			RANK			RHEE			RTOE			*39			*40			*41			*42		
		X1	Y1	Z1	X2	Y2	Z2	X3	Y3	Z3	X4	Y4	Z4	X5	Y5	Z5	X6	Y6	Z6	X7	Y7	Z7	X8	Y8	Z8	X9	Y9	Z9	X10	Y10	Z10	X11	Y11	Z11	X12	Y12	Z12	X13	Y13	Z13	X14	Y14	Z14	X15	Y15	Z15	X16	Y16	Z16	X17	Y17	Z17	X18	Y18	Z18	X19	Y19	Z19	X20	Y20	Z20	X21	Y21	Z21	X22	Y22	Z22	X23	Y23	Z23	X24	Y24	Z24	X25	Y25	Z25	X26	Y26	Z26	X27	Y27	Z27	X28	Y28	Z28	X29	Y29	Z29	X30	Y30	Z30	X31	Y31	Z31	X32	Y32	Z32	X33	Y33	Z33	X34	Y34	Z34	X35	Y35	Z35	X36	Y36	Z36	X37	Y37	Z37	X38	Y38	Z38	X39	Y39	Z39	X40	Y40	Z40	X41	Y41	Z41	X42	Y42	Z42	X43	Y43	Z43
																																																																																																																																		
196	1.95	170.3954	1666.43713	-1540.1792	190.10489	1671.42944	-1427.36572	51.73936	1627.6228	-1526.18066	69.05062	1632.39514	-1405.8092	10.10482	1428.93176	-1482.35754	-14.92481	1133.94897	-1468.80298	156.7312	1366.68347	-1482.08984	206.28352	1214.52795	-1482.13257	-36.33251	1233.67334	-1398.52466	93.2481	1387.68542	-1643.63525	70.28746	1201.92566	-1726.48938	58.73874	1051.47009	-1726.08899	99.38579	944.75598	-1748.83459	179.10289	830.09491	-1726.41589	124.44102	825.12299	-1753.07129	171.48949	753.76642	-1757.698	93.87646	1393.81958	-1330.40503	53.01955	1195.24866	-1220.23694	61.41952	1069.0448	-1213.50842	110.022	956.66583	-1185.59412	209.15771	857.81494	-1211.38293	169.44168	850.021	-1169.26392	221.81721	782.27344	-1175.35681	170.80879	930.75647	-1568.86426	163.2493	930.78339	-1351.98291	-17.63439	943.49866	-1525.65344	-20.36914	942.27991	-1380.26538	166.17709	600.198	-1614.08154	170.54591	467.09378	-1588.81287	122.76389	281.9639	-1592.84351	93.87112	68.74953	-1531.13965	48.04385	40.79601	-1478.57776	242.25447	32.4708	-1530.97253	143.34653	595.68188	-1290.0144	155.93179	439.56552	-1305.6947	5.51337	349.93393	-1301.54504	-154.58463	219.21674	-1347.9646	-204.6199	232.74339	-1405.72546	-121.65786	75.70068	-1347.34021	178.06871	1705.58887	-1449.7052	-1973.10669	1023.96686	3101.94629	-2012.51855	1021.91205	3140.77222	NaN	NaN	NaN
197	1.96	181.27617	1666.73425	-1540.48926	200.84743	1671.52979	-1427.68921	62.43956	1628.38318	-1526.70935	79.68694	1632.99426	-1406.36255	20.14788	1429.75293	-1483.45654	-5.64926	1134.74707	-1470.04651	166.75484	1367.06091	-1482.58374	215.62987	1214.74475	-1482.66626	-27.04342	1234.36121	-1400.02954	103.97846	1388.42615	-1644.28137	83.00375	1202.87463	-1727.70117	72.54736	1052.1156	-1728.36206	115.67327	946.29907	-1751.07874	198.07678	833.61353	-1728.62036	143.61568	827.34753	-1755.35571	192.61522	757.2962	-1760.22461	103.46605	1394.16284	-1330.95959	61.38505	1195.4845	-1221.59937	69.56491	1069.64832	-1214.41711	116.21459	956.80121	-1186.24011	213.62041	855.88031	-1211.16968	173.33871	848.92352	-1169.1853	224.35045	780.04858	-1175.0835	179.62993	931.36609	-1570.20251	172.98343	931.79095	-1353.47998	-8.6847	943.87201	-1525.80554	-10.78452	942.9458	-1380.31287	171.15518	599.87512	-1614.33301	173.98361	466.64572	-1589.28284	124.98382	282.09854	-1592.97241	94.18147	68.8938	-1531.04724	47.96893	41.44784	-1478.60168	242.40901	32.32169	-1530.85815	160.17459	597.68158	-1290.73889	175.8945	441.63531	-1306.69116	26.5107	350.63129	-1303.17834	-131.93669	217.74872	-1348.83826	-183.04657	228.88014	-1406.77637	-93.00052	76.2004	-1345.53528	189.0087	1705.80957	-1450.06848	-1973.05884	1023.34448	3101.87134	-2012.67273	1022.07031	3140.7063	NaN	NaN	NaN
198	1.97	192.20695	1666.96863	-1540.77747	211.66496	1671.58545	-1427.96606	73.20797	1629.13135	-1527.19641	90.28394	1633.52576	-1406.83093	30.0737	1430.44165	-1484.45496	3.60782	1135.45361	-1471.13477	176.65283	1367.44421	-1483.10535	225.02638	1214.89526	-1483.22119	-17.80486	1235.00049	-1401.35278	114.56053	1389.09839	-1644.91211	95.46183	1203.81519	-1728.88684	86.36401	1052.81995	-1730.6355	131.99339	947.93707	-1753.24731	217.19664	837.46613	-1730.93469	162.81068	829.71222	-1757.55334	213.65742	761.18317	-1762.69629	113.16158	1394.66138	-1331.33472	69.56162	1195.67603	-1222.90906	77.38931	1070.13599	-1215.65051	122.35996	956.98694	-1186.88635	217.43602	853.85504	-1211.15454	177.23999	848.14471	-1169.03503	226.7417	777.9306	-1174.62598	188.39134	931.9353	-1571.52576	182.32039	932.73938	-1354.9917	0.0946	944.22961	-1525.80896	-1.03861	943.68109	-1380.21863	176.29764	599.71918	-1614.8418	177.30569	466.15564	-1589.76416	126.77273	282.12561	-1593.19385	94.439	69.09117	-1530.99451	48.10573	41.85307	-1478.5271	242.51936	32.22921	-1530.84473	176.71556	599.57666	-1291.60327	195.29465	443.98047	-1307.83093	47.08446	351.13077	-1304.6156	-108.83047	215.149	-1350.12317	-161.08716	223.43538	-1407.49084	-63.16031	76.15408	-1344.82507	200.02055	1705.95422	-1450.29797	-1973.20728	1023.35815	3101.90234	-2012.55603	1021.94983	3140.646	NaN	NaN	NaN
199	1.98	203.18185	1667.13586	-1540.97778	222.48587	1671.44934	-1428.05701	84.02139	1629.8064	-1527.61389	100.90282	1634.02051	-1407.24133	40.00557	1431.01428	-1485.30676	12.83119	1136.0542	-1472.12439	186.38371	1367.70056	-1483.57458	234.36607	1215.03235	-1483.84253	-8.54071	1235.56543	-1402.47375	125.00423	1389.69373	-1645.42944	107.706	1204.69458	-1730.0509	100.12712	1053.37402	-1732.76147	148.24431	949.60248	-1755.32556	236.19604	841.42737	-1732.99219	182.08551	832.22479	-1759.66528	234.75346	765.19897	-1765.04175	122.48537	1394.99097	-1331.84668	77.51682	1195.84851	-1224.13733	84.94089	1070.56506	-1216.87866	128.33755	957.07526	-1187.53369	221.6432	852.10803	-1210.91321	180.99417	847.43414	-1169.26099	229.08405	775.99365	-1174.05322	196.98183	932.49823	-1572.84216	192.17155	933.68585	-1356.3479	8.824	944.59503	-1525.69299	8.7352	944.40521	-1380.0127	181.27553	599.44843	-1615.1792	180.79828	465.88974	-1590.0304	128.13278	282.21277	-1593.50183	94.67525	69.34652	-1530.97681	48.06369	42.34145	-1478.66077	242.61847	32.18562	-1530.85791	192.88898	601.73383	-1292.52319	214.18398	446.52469	-1309.02722	67.43552	350.85846	-1306.04211	-85.02039	211.34747	-1351.26538	-138.54893	216.90517	-1408.2793	-32.30159	75.68125	-1344.72253	211.01703	1705.88245	-1450.28418	-1973.04541	1023.39594	3102.00586	-2012.53381	1022.02283	3140.56665	NaN	NaN	NaN
200	1.99	214.17229	1667.20618	-1541.10522	233.30634	1671.2511	-1428.10632	94.78323	1630.4519	-1527.96045	111.58118	1634.29346	-1407.50964	49.70535	1431.39001	-1486.34436	22.03726	1136.58447	-1472.99695	195.88036	1367.77551	-1484.00586	243.76329	1215.11377	-1484.49841	0.74573	1236.08423	-1403.48511	135.27812	1390.203	-1645.93323	119.7047	1205.52563	-1731.24866	113.57235	1053.94666	-1734.84766	164.41316	951.30023	-1757.33948	255.14233	845.53223	-1734.94092	201.34212	834.87762	-1761.71948	255.82515	769.46857	-1767.26904	131.01497	1395.51331	-1332.82495	85.36816	1195.96948	-1225.35718	92.31282	1070.9082	-1218.25635	133.94234	957.23157	-1188.26733	225.4855	850.3089	-1210.76025	185.45413	846.37292	-1168.77112	231.57378	774.51868	-1173.56238	205.48425	932.90985	-1574.18787	201.63863	934.5116	-1357.82666	17.514	944.93872	-1525.49207	18.37132	945.13977	-1379.71899	186.76198	599.18231	-1615.30493	183.95804	465.36963	-1590.84241	129.52766	282.36325	-1593.79407	94.86828	69.7112	-1530.9856	48.41882	42.68449	-1478.31042	242.73746	32.10243	-1530.87195	208.50861	603.88007	-1293.35962	232.36436	449.11386	-1310.22534	87.72478	350.10059	-1307.38538	-60.43655	206.54871	-1352.43567	-115.20263	209.19878	-1408.92175	-0.86505	74.49712	-1345.02478	222.04675	1705.78369	-1450.3031	-1973.09851	1023.2265	3101.96631	-2012.54712	1021.97223	3140.63232	NaN	NaN	NaN
201	2	225.18509	1667.17224	-1541.1217	244.11159	1670.90039	-1428.06641	105.59245	1630.99719	-1528.21167	122.1885	1634.54968	-1407.73828	59.65186	1431.89392	-1486.89197	31.24478	1137.03162	-1473.82947	204.39427	1367.32288	-1484.10657	253.02458	1215.1438	-1485.15271	10.01442	1236.5575	-1404.36548	145.4471	1390.61951	-1646.39282	131.44193	1206.22034	-1732.40784	126.93886	1054.45435	-1736.77893	180.47749	953.01514	-1759.24683	273.9646	849.78796	-1736.89648	220.51108	837.68646	-1763.60242	276.9248	773.89288	-1769.40735	140.30124	1395.67615	-1333.32434	93.06909	1196.09985	-1226.59741	99.44347	1071.18274	-1219.53467	139.4912	957.01593	-1188.91101	229.00502	848.45917	-1210.67517	188.81793	845.57819	-1168.69897	233.66982	772.74744	-1172.78064	213.93518	933.19952	-1575.48352	211.17741	935.44971	-1359.34766	26.16266	945.27087	-1525.34668	27.87211	945.8006	-1379.50806	191.68233	598.99255	-1615.87292	187.41727	465.02582	-1591.3252	130.99776	282.49747	-1594.05872	95.10667	70.00137	-1530.82861	48.27608	43.65886	-1478.37939	242.80193	32.00933	-1530.90784	223.88483	606.05371	-1294.13025	250.14816	451.72281	-1311.46814	108.35992	348.77274	-1308.98047	-35.19141	200.57596	-1353.47058	-91.09983	200.56902	-1409.57336	31.15594	72.4988	-1345.83057	233.11891	1705.53467	-1450.18506	-1973.20959	1023.39917	3101.82373	-2012.57434	1022.04474	3140.70337	NaN	NaN	NaN
202	2.01	236.17459	1667.10266	-1541.06653	254.99873	1670.48596	-1427.97498	116.41937	1631.44299	-1528.43237	132.76364	1634.79114	-1408.00659	69.51318	1432.30383	-1487.53918	40.37051	1137.40747	-1474.56702	214.10857	1367.37793	-1484.61316	262.23367	1215.04614	-1485.80115	19.27926	1236.97253	-1405.17944	155.50307	1390.94165	-1646.88147	142.91277	1206.85486	-1733.61511	140.27754	1054.75061	-1738.52966	196.45444	954.73218	-1761.03271	292.6633	854.13641	-1738.75171	239.53676	840.55328	-1765.24561	297.7778	778.61761	-1771.53247	149.38254	1395.55701	-1334.08154	100.75613	1196.13416	-1227.72473	106.52422	1071.28943	-1221.01184	144.68935	956.8291	-1189.61365	232.9026	846.80994	-1210.39099	192.20097	844.73273	-1168.75122	235.90994	771.198	-1172.00452	222.28442	933.29895	-1576.72437	220.49852	936.21924	-1360.87402	34.80133	945.52386	-1525.21313	37.41029	946.29169	-1379.26648	196.97279	598.54584	-1616.36743	190.87083	464.61221	-1591.79346	132.72781	282.73535	-1594.18567	95.43685	70.3762	-1530.65552	48.53934	44.2525	-1478.12036	242.89932	31.92234	-1530.98083	238.86983	608.20557	-1294.79431	267.56033	454.42599	-1312.86987	129.22234	346.85583	-1310.35913	-9.4576	193.90761	-1354.75427	-65.82045	190.75888	-1410.52881	63.77805	69.97917	-1346.60413	244.17169	1705.20398	-1450.02576	-1973.08899	1023.62744	3102.00708	-2012.54004	1022.01379	3140.62769	NaN	NaN	NaN
